<?xml version="1.0" standalone="no"?>
<!DOCTYPE svg PUBLIC "-//W3C//DTD SVG 20010904//EN"
 "http://www.w3.org/TR/2001/REC-SVG-20010904/DTD/svg10.dtd">
<svg version="1.0" xmlns="http://www.w3.org/2000/svg"
 width="1000.000000pt" height="1000.000000pt" viewBox="0 0 1000.000000 1000.000000"
 preserveAspectRatio="xMidYMid meet">

<g transform="translate(0.000000,1000.000000) scale(0.100000,-0.100000)"
fill="#000000" stroke="none">
<path d="M3140 8963 c-197 -33 -379 -189 -460 -393 -12 -30 -117 -445 -234
-923 -117 -477 -216 -870 -219 -873 -3 -3 -113 -22 -244 -40 -425 -62 -796
-145 -999 -223 -296 -115 -338 -244 -116 -359 151 -78 370 -141 716 -207 105
-20 192 -37 193 -39 2 -2 -3 -57 -11 -122 -33 -254 -35 -456 -29 -2527 6
-1879 8 -2057 22 -2052 9 3 247 115 530 250 283 135 518 245 522 245 5 0 240
-143 522 -319 282 -175 523 -323 534 -330 19 -9 84 28 553 320 293 182 537
328 544 326 11 -4 633 -390 906 -562 63 -39 125 -77 137 -83 20 -11 76 21 553
318 291 181 534 330 539 330 4 0 129 -58 277 -129 684 -327 777 -371 786 -371
5 0 7 849 5 2178 -4 2262 -3 2235 -42 2477 l-7 40 174 29 c455 76 806 184 929
285 46 38 73 92 64 131 -20 89 -229 195 -541 274 -214 54 -688 139 -901 162
-35 4 -63 8 -63 10 0 2 -97 396 -215 876 -251 1017 -241 986 -384 1128 -96 95
-170 138 -287 166 -131 31 -175 22 -642 -137 -1235 -418 -1180 -402 -1325
-381 -48 8 -331 98 -812 262 -406 137 -763 254 -793 260 -55 10 -133 11 -182
3z m18 -3638 c397 -93 520 -122 697 -164 94 -21 301 -70 460 -107 160 -37 292
-69 294 -70 2 -2 -7 -33 -19 -71 -170 -530 -787 -766 -1280 -490 -99 55 -251
205 -309 304 -94 160 -138 334 -127 503 8 119 15 150 33 150 7 0 120 -25 251
-55z m3856 28 c17 -78 18 -222 2 -311 -34 -193 -111 -340 -255 -482 -110 -109
-197 -163 -336 -209 -464 -154 -966 99 -1115 562 -12 38 -21 69 -19 71 2 1
135 33 294 70 270 63 447 104 820 192 83 19 242 57 355 83 113 27 215 50 226
50 16 1 23 -7 28 -26z m-406 -2021 c45 -142 82 -264 82 -270 0 -13 -23 -15
-390 -47 -334 -29 -734 -67 -738 -70 -2 -2 14 -51 34 -109 20 -59 35 -109 32
-111 -2 -2 -150 -20 -328 -39 -637 -68 -1359 -147 -1615 -175 -143 -16 -262
-27 -264 -25 -2 2 -2 6 1 9 3 3 331 98 729 211 398 114 725 207 726 208 2 1
-18 64 -43 140 -25 75 -45 138 -43 140 2 1 321 75 709 164 388 89 770 177 850
196 80 19 152 34 161 35 12 1 35 -60 97 -257z"/>
</g>
</svg>
